<?xml version="1.0" encoding="UTF-8"?>
<svg xmlns="http://www.w3.org/2000/svg" xmlns:xlink="http://www.w3.org/1999/xlink" width="2628.13pt" height="660.49pt" viewBox="0 0 2628.13 660.49" version="1.1">
<defs>
<clipPath id="clip1">
  <path d="M 0 50 L 611 50 L 611 660.488281 L 0 660.488281 Z M 0 50 "/>
</clipPath>
<clipPath id="clip2">
  <path d="M 0 372 L 290 372 L 290 660.488281 L 0 660.488281 Z M 0 372 "/>
</clipPath>
</defs>
<g id="surface1">
<g clip-path="url(#clip1)" clip-rule="nonzero">
<path style=" stroke:none;fill-rule:nonzero;fill:rgb(90.59906%,52.89917%,31.799316%);fill-opacity:1;" d="M -0.480469 337.402344 C 2.066406 321.335938 4.132813 305.109375 7.476563 289.203125 C 32.769531 170.371094 130.28125 76.835938 250.546875 55.515625 C 414.714844 26.40625 570.453125 131.875 603.859375 294.449219 C 638.0625 460.847656 526.703125 625.335938 359.992188 654.605469 C 346.945313 656.832031 333.902344 658.582031 320.699219 660.488281 C 310.199219 660.488281 299.699219 660.488281 289.203125 660.488281 C 276.160156 658.582031 262.953125 656.992188 250.066406 654.605469 C 130.28125 633.449219 32.609375 539.433594 7.476563 420.921875 C 4.132813 405.011719 2.226563 388.785156 -0.480469 372.71875 C -0.480469 360.949219 -0.480469 349.175781 -0.480469 337.402344 Z M 408.828125 257.386719 C 409.304688 255.003906 410.101563 252.457031 410.417969 249.910156 C 412.488281 232.09375 413.601563 214.117188 416.78125 196.617188 C 418.53125 187.074219 415.191406 184.527344 407.078125 182.144531 C 373.671875 172.757813 339.949219 169.894531 305.429688 174.984375 C 194.871094 191.210938 137.917969 285.386719 152.078125 381.46875 C 174.03125 531.160156 324.199219 565.203125 420.441406 515.730469 C 423.621094 514.140625 426.804688 508.890625 426.804688 505.230469 C 427.28125 457.984375 426.964844 410.578125 427.28125 363.335938 C 427.28125 355.699219 424.574219 353.785156 417.578125 353.945313 C 401.511719 354.265625 385.445313 353.945313 369.378906 354.105469 C 351.71875 354.265625 352.675781 351.71875 352.675781 370.332031 C 352.675781 398.171875 352.675781 426.011719 352.675781 453.847656 C 352.675781 458.304688 352.832031 462.597656 346.472656 463.074219 C 318.789063 465.460938 292.542969 461.644531 269.953125 444.304688 C 235.75 417.894531 223.503906 381.945313 228.59375 340.105469 C 233.84375 297.15625 256.589844 267.089844 298.109375 252.296875 C 320.222656 244.503906 343.289063 244.980469 366.035156 247.84375 C 380.035156 249.75 393.875 254.046875 408.828125 257.386719 "/>
</g>
<g clip-path="url(#clip2)" clip-rule="nonzero">
<path style=" stroke:none;fill-rule:nonzero;fill:rgb(100%,100%,100%);fill-opacity:1;" d="M -0.480469 372.71875 C 2.066406 388.785156 4.132813 405.011719 7.476563 420.921875 C 32.609375 539.433594 130.28125 633.449219 250.066406 654.605469 C 263.113281 656.832031 276.160156 658.582031 289.203125 660.488281 C 192.800781 660.488281 96.402344 660.488281 -0.480469 660.488281 C -0.480469 564.566406 -0.480469 468.644531 -0.480469 372.71875 "/>
</g>
<path style=" stroke:none;fill-rule:nonzero;fill:rgb(90.59906%,52.89917%,31.799316%);fill-opacity:1;" d="M 1499.941406 203.777344 C 1594.121094 202.824219 1650.429688 271.226563 1651.230469 351.878906 C 1652.179688 441.121094 1590.140625 504.597656 1505.511719 506.027344 C 1407.199219 507.773438 1348.980469 439.53125 1348.339844 354.742188 C 1347.871094 266.296875 1411.019531 203.777344 1499.941406 203.777344 Z M 1499.628906 445.894531 C 1552.121094 445.894531 1589.191406 408.191406 1589.191406 354.425781 C 1589.191406 301.449219 1551.960938 262.953125 1500.421875 262.796875 C 1448.398438 262.636719 1410.859375 301.136719 1410.859375 354.585938 C 1410.859375 407.875 1447.769531 445.734375 1499.628906 445.894531 "/>
<path style=" stroke:none;fill-rule:nonzero;fill:rgb(90.59906%,52.89917%,31.799316%);fill-opacity:1;" d="M 1296.171875 505.707031 C 1274.371094 505.707031 1254.171875 506.023438 1234.128906 505.390625 C 1230.941406 505.230469 1226.808594 501.414063 1225.21875 498.390625 C 1207.558594 465.78125 1190.21875 433.007813 1173.359375 400.078125 C 1169.378906 392.285156 1164.769531 388.945313 1156.179688 389.898438 C 1150.449219 390.535156 1144.558594 390.058594 1137.558594 390.058594 C 1137.558594 429.03125 1137.558594 466.894531 1137.558594 505.867188 C 1118.628906 505.867188 1100.660156 506.027344 1082.839844 505.707031 C 1081.25 505.707031 1079.019531 503.164063 1078.390625 501.414063 C 1077.589844 499.1875 1078.070313 496.480469 1078.070313 494.097656 C 1078.070313 401.511719 1078.070313 309.089844 1078.070313 216.503906 C 1078.070313 204.097656 1078.070313 204.097656 1090 204.097656 C 1127.070313 204.097656 1164.289063 203.617188 1201.359375 204.414063 C 1240.328125 205.210938 1269.921875 227.957031 1281.371094 264.707031 C 1293.621094 303.679688 1281.691406 346.632813 1251.621094 368.425781 C 1244.308594 373.832031 1235.558594 377.488281 1226.488281 382.582031 C 1249.398438 422.667969 1272.460938 463.394531 1296.171875 505.707031 Z M 1137.25 297.792969 C 1137.25 306.382813 1137.558594 315.132813 1137.089844 323.722656 C 1136.769531 329.925781 1138.679688 332.632813 1145.359375 332.3125 C 1160.46875 331.835938 1175.578125 332.3125 1190.859375 332.152344 C 1210.101563 331.835938 1222.988281 317.835938 1223.308594 297.792969 C 1223.46875 277.90625 1210.421875 263.433594 1191.488281 262.796875 C 1176.058594 262.320313 1160.628906 262.953125 1145.199219 262.636719 C 1139 262.476563 1137.089844 265.023438 1137.410156 270.90625 C 1137.558594 279.976563 1137.25 288.886719 1137.25 297.792969 "/>
<path style=" stroke:none;fill-rule:nonzero;fill:rgb(90.59906%,52.89917%,31.799316%);fill-opacity:1;" d="M 2327.789063 382.265625 C 2350.378906 422.511719 2373.28125 463.074219 2396.660156 504.753906 C 2393.640625 505.230469 2391.421875 505.707031 2389.191406 505.707031 C 2372.171875 505.707031 2355.148438 505.546875 2338.128906 505.867188 C 2332.078125 506.027344 2328.738281 504.117188 2326.039063 498.550781 C 2309.808594 467.214844 2292.628906 436.507813 2277.199219 405.011719 C 2271.308594 392.761719 2264 387.511719 2250.949219 389.738281 C 2247.128906 390.378906 2243.160156 390.21875 2238.539063 390.535156 C 2238.539063 429.03125 2238.539063 466.734375 2238.539063 505.707031 C 2219.609375 505.707031 2201.640625 505.867188 2183.5 505.546875 C 2182.070313 505.546875 2180 503.164063 2179.519531 501.570313 C 2178.890625 499.027344 2179.050781 496.003906 2179.050781 493.300781 C 2179.050781 401.195313 2179.050781 308.929688 2179.050781 216.824219 C 2179.050781 203.9375 2179.050781 203.9375 2191.621094 203.9375 C 2228.359375 203.9375 2265.269531 203.460938 2302.011719 204.097656 C 2341.148438 204.734375 2370.578125 227.160156 2382.511719 263.75 C 2395.078125 302.566406 2383.300781 345.515625 2353.558594 367.628906 C 2345.921875 373.195313 2337.011719 377.171875 2327.789063 382.265625 Z M 2238.378906 332.3125 C 2257.628906 332.3125 2275.289063 332.632813 2292.789063 332.152344 C 2310.921875 331.675781 2323.328125 318.3125 2324.128906 298.746094 C 2324.921875 279.976563 2312.828125 264.226563 2295.019531 263.113281 C 2278.148438 262.160156 2260.96875 262.636719 2244.109375 262.953125 C 2242.199219 262.953125 2238.539063 266.296875 2238.539063 268.046875 C 2238.21875 289.203125 2238.378906 310.042969 2238.378906 332.3125 "/>
<path style=" stroke:none;fill-rule:nonzero;fill:rgb(90.59906%,52.89917%,31.799316%);fill-opacity:1;" d="M 933.628906 354.902344 C 953.191406 354.902344 971.011719 354.742188 988.988281 355.21875 C 990.734375 355.21875 993.917969 358.878906 993.917969 360.949219 C 994.234375 401.511719 994.234375 441.917969 993.917969 482.484375 C 993.917969 485.027344 991.210938 488.6875 988.828125 489.960938 C 909.128906 531.160156 786.160156 502.847656 765.320313 384.011719 C 754.503906 322.449219 771.207031 268.523438 823.386719 230.820313 C 871.109375 196.300781 924.878906 194.074219 980.074219 210.300781 C 982.464844 210.9375 985.167969 216.1875 984.851563 219.210938 C 983.417969 236.390625 981.191406 253.570313 979.28125 270.273438 C 963.851563 267.410156 949.058594 263.433594 933.945313 262 C 896.71875 258.660156 863.632813 267.566406 841.363281 300.339844 C 807.320313 350.445313 828.476563 423.308594 882.878906 442.078125 C 895.925781 446.53125 910.71875 446.054688 924.71875 447.484375 C 931.398438 448.121094 933.785156 444.621094 933.785156 437.941406 C 933.46875 414.398438 933.628906 390.855469 933.628906 367.46875 C 933.628906 363.648438 933.628906 359.992188 933.628906 354.902344 "/>
<path style=" stroke:none;fill-rule:nonzero;fill:rgb(90.59906%,52.89917%,31.799316%);fill-opacity:1;" d="M 2104.601563 505.390625 C 2052.261719 505.390625 2001.359375 505.390625 1949.179688 505.390625 C 1949.019531 502.210938 1948.539063 499.027344 1948.539063 495.84375 C 1948.539063 402.785156 1948.539063 309.722656 1948.539063 216.664063 C 1948.539063 203.9375 1948.539063 203.9375 1961.269531 203.9375 C 2003.269531 203.9375 2045.421875 203.9375 2087.421875 203.9375 C 2090.761719 203.9375 2094.101563 203.9375 2098.238281 203.9375 C 2098.238281 223.660156 2098.238281 242.59375 2098.238281 262.953125 C 2088.851563 262.953125 2079.78125 262.953125 2070.558594 262.953125 C 2052.261719 262.953125 2034.128906 262.953125 2015.828125 262.953125 C 2011.699219 262.953125 2007.71875 262.796875 2007.878906 268.84375 C 2008.039063 286.976563 2007.878906 305.269531 2007.878906 324.679688 C 2034.449219 324.679688 2060.53125 324.679688 2087.101563 324.679688 C 2087.101563 345.039063 2087.101563 363.972656 2087.101563 384.492188 C 2061.011719 384.492188 2034.921875 384.492188 2008.359375 384.492188 C 2008.359375 405.648438 2008.359375 425.214844 2008.359375 445.734375 C 2012.488281 446.054688 2016.46875 446.371094 2020.289063 446.371094 C 2045.101563 446.371094 2069.761719 446.691406 2094.578125 446.210938 C 2102.210938 446.054688 2104.921875 448.28125 2104.601563 456.074219 C 2104.121094 472.300781 2104.601563 488.367188 2104.601563 505.390625 "/>
<path style=" stroke:none;fill-rule:nonzero;fill:rgb(90.59906%,52.89917%,31.799316%);fill-opacity:1;" d="M 2605.851563 214.117188 C 2603.308594 233.367188 2600.921875 251.503906 2598.378906 269.953125 C 2584.851563 266.613281 2571.96875 262.636719 2558.769531 260.25 C 2550.648438 258.660156 2542.058594 258.660156 2533.789063 259.136719 C 2519.628906 260.09375 2510.089844 269.15625 2506.589844 282.996094 C 2503.410156 295.726563 2507.859375 307.496094 2519.789063 314.8125 C 2526.320313 318.789063 2533.789063 321.179688 2540.628906 324.679688 C 2556.699219 332.632813 2573.398438 339.3125 2588.359375 349.015625 C 2620.328125 369.855469 2633.210938 399.765625 2625.738281 437.78125 C 2618.898438 472.300781 2591.539063 499.027344 2555.589844 505.867188 C 2517.410156 513.183594 2481.300781 505.390625 2446.621094 489.164063 C 2444.390625 488.050781 2441.691406 484.710938 2441.839844 482.640625 C 2443.75 463.871094 2446.300781 445.261719 2448.839844 425.054688 C 2452.660156 427.28125 2455.371094 428.871094 2458.230469 430.304688 C 2482.890625 443.828125 2509.128906 450.507813 2537.449219 447.484375 C 2552.71875 445.894531 2564.019531 436.191406 2566.71875 423.144531 C 2569.269531 410.578125 2562.421875 397.851563 2548.429688 391.011719 C 2537.128906 385.441406 2524.878906 381.785156 2513.429688 376.378906 C 2502.140625 370.8125 2490.679688 365.082031 2480.339844 357.765625 C 2450.589844 336.929688 2439.941406 307.65625 2447.570313 272.5 C 2455.050781 237.503906 2476.039063 213.640625 2510.878906 204.414063 C 2543.488281 195.980469 2574.679688 203.144531 2605.851563 214.117188 "/>
<path style=" stroke:none;fill-rule:nonzero;fill:rgb(90.59906%,52.89917%,31.799316%);fill-opacity:1;" d="M 1790.261719 505.390625 C 1769.898438 505.390625 1751.128906 505.390625 1731.398438 505.390625 C 1731.398438 405.328125 1731.398438 305.429688 1731.398438 204.414063 C 1734.421875 204.253906 1737.761719 203.777344 1740.949219 203.777344 C 1783.898438 203.777344 1826.851563 203.9375 1869.960938 203.617188 C 1878.710938 203.460938 1881.25 206.320313 1880.941406 214.753906 C 1880.300781 227.480469 1880.300781 240.207031 1880.941406 252.773438 C 1881.410156 261.203125 1878.230469 263.273438 1870.28125 263.113281 C 1847.371094 262.636719 1824.460938 262.953125 1801.558594 262.953125 C 1798.21875 262.953125 1794.871094 262.953125 1790.738281 262.953125 C 1790.738281 283.953125 1790.738281 303.839844 1790.738281 324.835938 C 1815.871094 324.835938 1840.851563 324.835938 1866.941406 324.835938 C 1866.941406 343.925781 1867.101563 362.0625 1866.621094 380.195313 C 1866.621094 381.785156 1861.53125 384.652344 1858.671875 384.652344 C 1839.578125 385.128906 1820.328125 384.808594 1801.078125 384.808594 C 1797.738281 384.808594 1794.398438 384.808594 1790.101563 384.808594 C 1790.261719 425.375 1790.261719 464.824219 1790.261719 505.390625 "/>
<path style=" stroke:none;fill-rule:nonzero;fill:rgb(90.59906%,52.89917%,31.799316%);fill-opacity:1;" d="M 610.222656 99.421875 C 582.222656 99.421875 560.746094 77.46875 560.746094 49.152344 C 560.90625 21.953125 583.179688 0 610.539063 0 C 638.21875 0.15625 660.171875 22.429688 660.011719 50.425781 C 659.855469 77.789063 637.902344 99.421875 610.222656 99.421875 "/>
</g>
</svg>
